<svg width="52" height="52" viewBox="0 0 52 52" fill="none" xmlns="http://www.w3.org/2000/svg">
<path d="M29.0333 37.7433H23.595C20.0417 37.7433 17.16 34.7533 17.16 31.07C17.16 30.1817 17.8967 29.445 18.785 29.445C19.6733 29.445 20.41 30.1817 20.41 31.07C20.41 32.955 21.84 34.4933 23.595 34.4933H29.0333C30.4417 34.4933 31.6117 33.2367 31.6117 31.72C31.6117 29.835 30.94 29.4667 29.835 29.0767L21.1033 26C19.4133 25.415 17.1383 24.1583 17.1383 20.28C17.1383 16.9433 19.76 14.2567 22.9667 14.2567H28.405C31.9583 14.2567 34.84 17.2467 34.84 20.93C34.84 21.8183 34.1033 22.555 33.215 22.555C32.3267 22.555 31.59 21.8183 31.59 20.93C31.59 19.045 30.16 17.5067 28.405 17.5067H22.9667C21.5583 17.5067 20.3883 18.7633 20.3883 20.28C20.3883 22.165 21.06 22.5333 22.165 22.9233L30.8967 26C32.5867 26.585 34.8617 27.8417 34.8617 31.72C34.84 35.035 32.24 37.7433 29.0333 37.7433Z" fill="#95A9C6"/>
<path d="M26 40.625C25.1117 40.625 24.375 39.8883 24.375 39V13C24.375 12.1117 25.1117 11.375 26 11.375C26.8883 11.375 27.625 12.1117 27.625 13V39C27.625 39.8883 26.8883 40.625 26 40.625Z" fill="#95A9C6"/>
<path d="M26 49.2916C13.1517 49.2916 2.70833 38.8483 2.70833 26C2.70833 13.1516 13.1517 2.70831 26 2.70831C38.8483 2.70831 49.2917 13.1516 49.2917 26C49.2917 38.8483 38.8483 49.2916 26 49.2916ZM26 5.95831C14.95 5.95831 5.95833 14.95 5.95833 26C5.95833 37.05 14.95 46.0416 26 46.0416C37.05 46.0416 46.0417 37.05 46.0417 26C46.0417 14.95 37.05 5.95831 26 5.95831Z" fill="white"/>
</svg>
